<svg width="52" height="40" viewBox="0 0 52 40" fill="none" xmlns="http://www.w3.org/2000/svg">
<g clip-path="url(#clip0_1_167)" filter="url(#filter0_d_1_167)">
<path d="M47.5181 29.2C47.4651 29.0956 47.4157 29.009 47.3698 28.9396C46.6108 27.6897 45.1602 26.1555 43.0191 24.3366L42.9738 24.295L42.9512 24.2746L42.9283 24.2536H42.9053C41.9335 23.4067 41.3182 22.8372 41.0605 22.5456C40.5889 21.9902 40.4833 21.428 40.741 20.8584C40.9231 20.428 41.607 19.5191 42.7911 18.1305C43.414 17.3945 43.9073 16.8047 44.2716 16.3603C46.899 13.1668 48.038 11.1261 47.6886 10.2374L47.5529 10.0297C47.4617 9.90467 47.2263 9.7903 46.8471 9.68598C46.467 9.58189 45.9812 9.56468 45.3888 9.63405L38.8287 9.67548C38.7224 9.64105 38.5707 9.64426 38.373 9.68598C38.1755 9.72771 38.0767 9.74864 38.0767 9.74864L37.9625 9.8008L37.8719 9.86346C37.796 9.90489 37.7124 9.97776 37.6212 10.0819C37.5305 10.1857 37.4546 10.3075 37.394 10.4464C36.6798 12.1264 35.8677 13.6883 34.9564 15.1322C34.3945 15.9932 33.8784 16.7393 33.4071 17.3711C32.9365 18.0027 32.5416 18.468 32.223 18.7663C31.9039 19.0648 31.6158 19.304 31.3572 19.4847C31.0989 19.6655 30.9018 19.7418 30.7653 19.7139C30.6284 19.6859 30.4996 19.6582 30.3776 19.6305C30.1651 19.5055 29.9942 19.3354 29.8654 19.1203C29.736 18.9051 29.6488 18.6342 29.6033 18.3079C29.558 17.9814 29.5312 17.7006 29.5235 17.4645C29.5164 17.2286 29.5197 16.8951 29.5351 16.4647C29.5509 16.0341 29.558 15.7428 29.558 15.59C29.558 15.0623 29.5692 14.4896 29.5918 13.8718C29.6148 13.2539 29.6334 12.7644 29.6489 12.4038C29.6644 12.0428 29.6716 11.6608 29.6716 11.2582C29.6716 10.8555 29.6448 10.5397 29.5918 10.3105C29.5395 10.0816 29.4591 9.85945 29.3533 9.64404C29.2467 9.42885 29.0908 9.26239 28.8863 9.14422C28.6813 9.0262 28.4265 8.93253 28.1232 8.86294C27.3183 8.69641 26.2933 8.60632 25.0478 8.59232C22.2234 8.5646 20.4085 8.73135 19.6037 9.09236C19.2848 9.24488 18.9962 9.45329 18.7382 9.71691C18.4648 10.0225 18.4266 10.1892 18.624 10.2167C19.5353 10.3415 20.1804 10.64 20.5601 11.1121L20.697 11.3622C20.8034 11.5427 20.9097 11.8622 21.016 12.3202C21.1222 12.7783 21.1907 13.2851 21.2209 13.8402C21.2967 14.8539 21.2967 15.7217 21.2209 16.4435C21.1449 17.1657 21.0731 17.7279 21.0045 18.1305C20.936 18.5332 20.8336 18.8595 20.697 19.1093C20.5601 19.3592 20.4691 19.512 20.4235 19.5674C20.3779 19.6229 20.3399 19.6578 20.3098 19.6715C20.1124 19.7407 19.9071 19.7759 19.6946 19.7759C19.4819 19.7759 19.2238 19.6786 18.9202 19.4841C18.6166 19.2896 18.3015 19.0225 17.975 18.6823C17.6484 18.342 17.2801 17.8665 16.87 17.2556C16.4601 16.6448 16.0349 15.9229 15.5945 15.0898L15.2301 14.4857C15.0023 14.097 14.6912 13.5311 14.2963 12.7885C13.9012 12.0455 13.552 11.3269 13.2484 10.6327C13.1271 10.3411 12.9448 10.1191 12.7018 9.96639L12.5878 9.90372C12.512 9.84829 12.3904 9.78942 12.2235 9.72669C12.0563 9.66403 11.8819 9.61909 11.6995 9.59145L5.45813 9.63288C4.82034 9.63288 4.38759 9.76498 4.15973 10.0288L4.06853 10.1536C4.02298 10.2232 4 10.3342 4 10.487C4 10.6397 4.04556 10.8272 4.13675 11.0492C5.04788 13.007 6.03871 14.8952 7.10925 16.714C8.17979 18.5328 9.11006 19.9979 9.89952 21.108C10.6891 22.2189 11.494 23.2673 12.3141 24.2528C13.1342 25.2387 13.677 25.8704 13.9426 26.148C14.2086 26.4261 14.4174 26.634 14.5693 26.7728L15.1388 27.2725C15.5033 27.6058 16.0385 28.005 16.7446 28.47C17.451 28.9353 18.2329 29.3934 19.0909 29.845C19.9491 30.2959 20.9474 30.6638 22.0865 30.9484C23.2254 31.2332 24.3339 31.3475 25.4122 31.2924H28.0318C28.5631 31.2504 28.9656 31.0977 29.2392 30.8341L29.3298 30.7297C29.3907 30.6468 29.4478 30.5181 29.5005 30.3448C29.5537 30.1713 29.5802 29.9801 29.5802 29.7721C29.5647 29.1752 29.6144 28.6373 29.728 28.1583C29.8415 27.6795 29.9709 27.3185 30.1157 27.0754C30.2603 26.8324 30.4235 26.6275 30.6052 26.4613C30.7873 26.2948 30.917 26.1939 30.9931 26.1592C31.0688 26.1242 31.1292 26.1005 31.1747 26.0863C31.5392 25.9753 31.9681 26.0828 32.4621 26.4094C32.9557 26.7356 33.4187 27.1385 33.8518 27.6173C34.2846 28.0966 34.8046 28.6343 35.4119 29.2312C36.0197 29.8283 36.551 30.2722 37.0064 30.5642L37.4618 30.8141C37.766 30.9808 38.1608 31.1336 38.6469 31.2724C39.132 31.4111 39.5571 31.4459 39.9221 31.3765L45.7533 31.2933C46.33 31.2933 46.7788 31.206 47.0971 31.0328C47.4161 30.8592 47.6056 30.668 47.6667 30.4601C47.7277 30.2519 47.7309 30.0157 47.6783 29.7516C47.6243 29.4882 47.571 29.304 47.5181 29.2Z" fill="white"/>
</g>
<defs>
<filter id="filter0_d_1_167" x="0" y="0" width="51.75" height="48" filterUnits="userSpaceOnUse" color-interpolation-filters="sRGB">
<feFlood flood-opacity="0" result="BackgroundImageFix"/>
<feColorMatrix in="SourceAlpha" type="matrix" values="0 0 0 0 0 0 0 0 0 0 0 0 0 0 0 0 0 0 127 0" result="hardAlpha"/>
<feOffset dy="4"/>
<feGaussianBlur stdDeviation="2"/>
<feComposite in2="hardAlpha" operator="out"/>
<feColorMatrix type="matrix" values="0 0 0 0 0 0 0 0 0 0 0 0 0 0 0 0 0 0 0.25 0"/>
<feBlend mode="normal" in2="BackgroundImageFix" result="effect1_dropShadow_1_167"/>
<feBlend mode="normal" in="SourceGraphic" in2="effect1_dropShadow_1_167" result="shape"/>
</filter>
<clipPath id="clip0_1_167">
<rect width="43.75" height="40" fill="white" transform="translate(4)"/>
</clipPath>
</defs>
</svg>
